<svg width="24" height="24" viewBox="0 0 24 24" fill="none" xmlns="http://www.w3.org/2000/svg">
<path d="M16.7996 3.2999C16.7996 3.06121 16.8944 2.83229 17.0632 2.66351C17.232 2.49472 17.4609 2.3999 17.6996 2.3999H20.6996C20.9383 2.3999 21.1672 2.49472 21.336 2.66351C21.5048 2.83229 21.5996 3.06121 21.5996 3.2999V6.2999C21.5996 6.5386 21.5048 6.76752 21.336 6.9363C21.1672 7.10508 20.9383 7.1999 20.6996 7.1999C20.4609 7.1999 20.232 7.10508 20.0632 6.9363C19.8944 6.76752 19.7996 6.5386 19.7996 6.2999V5.4719L14.4356 10.8359C14.2668 11.0044 14.0381 11.0991 13.7996 11.0991C13.5611 11.0991 13.3323 11.0044 13.1636 10.8359L10.1996 7.8719L5.1356 12.9359C5.0532 13.0243 4.95384 13.0953 4.84344 13.1444C4.73304 13.1936 4.61387 13.2201 4.49303 13.2222C4.37218 13.2243 4.25215 13.2021 4.14008 13.1568C4.02802 13.1116 3.92621 13.0442 3.84075 12.9587C3.75529 12.8733 3.68792 12.7715 3.64265 12.6594C3.59739 12.5474 3.57516 12.4273 3.57729 12.3065C3.57942 12.1856 3.60587 12.0665 3.65506 11.9561C3.70425 11.8457 3.77517 11.7463 3.8636 11.6639L9.5636 5.9639C9.73235 5.79536 9.9611 5.70069 10.1996 5.70069C10.4381 5.70069 10.6668 5.79536 10.8356 5.9639L13.7996 8.9279L18.5276 4.1999H17.6996C17.4609 4.1999 17.232 4.10508 17.0632 3.9363C16.8944 3.76752 16.7996 3.5386 16.7996 3.2999ZM4.4996 16.7999C4.73829 16.7999 4.96721 16.8947 5.13599 17.0635C5.30478 17.2323 5.3996 17.4612 5.3996 17.6999V20.6999C5.3996 20.9386 5.30478 21.1675 5.13599 21.3363C4.96721 21.5051 4.73829 21.5999 4.4996 21.5999C4.2609 21.5999 4.03198 21.5051 3.8632 21.3363C3.69442 21.1675 3.5996 20.9386 3.5996 20.6999V17.6999C3.5996 17.4612 3.69442 17.2323 3.8632 17.0635C4.03198 16.8947 4.2609 16.7999 4.4996 16.7999ZM10.1996 14.0999C10.1996 13.8612 10.1048 13.6323 9.93599 13.4635C9.76721 13.2947 9.53829 13.1999 9.2996 13.1999C9.0609 13.1999 8.83198 13.2947 8.6632 13.4635C8.49442 13.6323 8.3996 13.8612 8.3996 14.0999V20.6999C8.3996 20.9386 8.49442 21.1675 8.6632 21.3363C8.83198 21.5051 9.0609 21.5999 9.2996 21.5999C9.53829 21.5999 9.76721 21.5051 9.93599 21.3363C10.1048 21.1675 10.1996 20.9386 10.1996 20.6999V14.0999ZM14.0996 15.5999C14.3383 15.5999 14.5672 15.6947 14.736 15.8635C14.9048 16.0323 14.9996 16.2612 14.9996 16.4999V20.6999C14.9996 20.9386 14.9048 21.1675 14.736 21.3363C14.5672 21.5051 14.3383 21.5999 14.0996 21.5999C13.8609 21.5999 13.632 21.5051 13.4632 21.3363C13.2944 21.1675 13.1996 20.9386 13.1996 20.6999V16.4999C13.1996 16.2612 13.2944 16.0323 13.4632 15.8635C13.632 15.6947 13.8609 15.5999 14.0996 15.5999ZM19.7996 11.6999C19.7996 11.4612 19.7048 11.2323 19.536 11.0635C19.3672 10.8947 19.1383 10.7999 18.8996 10.7999C18.6609 10.7999 18.432 10.8947 18.2632 11.0635C18.0944 11.2323 17.9996 11.4612 17.9996 11.6999V20.6999C17.9996 20.9386 18.0944 21.1675 18.2632 21.3363C18.432 21.5051 18.6609 21.5999 18.8996 21.5999C19.1383 21.5999 19.3672 21.5051 19.536 21.3363C19.7048 21.1675 19.7996 20.9386 19.7996 20.6999V11.6999Z" fill="#215957"/>
</svg>
