<svg width="24" height="24" viewBox="0 0 24 24" fill="none" xmlns="http://www.w3.org/2000/svg">
<path d="M12 21C17.5228 21 22 16.5228 22 11C22 5.47715 17.5228 1 12 1C6.47715 1 2 5.47715 2 11C2 16.5228 6.47715 21 12 21Z" fill="#FFF59D"/>
<path d="M18.5005 11C18.5005 7.15 15.2005 4.1 11.2505 4.55C8.25045 4.9 5.85045 7.3 5.55045 10.3C5.30045 12.6 6.25045 14.65 7.85045 15.95C8.55045 16.55 9.00045 17.4 9.00045 18.35V18.5H15.0005V18.45C15.0005 17.55 15.4005 16.65 16.1005 16.05C17.5505 14.85 18.5005 13.05 18.5005 11Z" fill="#FBC02D"/>
<path d="M15.2998 10.0999L13.7998 9.0999C13.6498 8.9999 13.3998 8.9999 13.2498 9.0999L11.9998 9.8999L10.7998 9.0999C10.6498 8.9999 10.3998 8.9999 10.2498 9.0999L8.7498 10.0999C8.6498 10.1999 8.5498 10.2999 8.5498 10.4499C8.5498 10.5999 8.5498 10.7499 8.6498 10.8499L10.5498 13.1999V18.4999H11.5498V12.9999C11.5498 12.8999 11.4998 12.7999 11.4498 12.6999L9.7998 10.6499L10.5498 10.1499L11.7498 10.9499C11.8998 11.0499 12.1498 11.0499 12.2998 10.9499L13.4998 10.1499L14.2498 10.6499L12.5998 12.6999C12.5498 12.7999 12.4998 12.8999 12.4998 12.9999V18.4999H13.4998V13.1999L15.3998 10.8499C15.4998 10.7499 15.5498 10.5999 15.4998 10.4499C15.4498 10.2999 15.3998 10.1499 15.2998 10.0999Z" fill="#FFF59D"/>
<path d="M12 23.5C12.8284 23.5 13.5 22.8284 13.5 22C13.5 21.1716 12.8284 20.5 12 20.5C11.1716 20.5 10.5 21.1716 10.5 22C10.5 22.8284 11.1716 23.5 12 23.5Z" fill="#5C6BC0"/>
<path d="M13 22.5H11C9.9 22.5 9 21.6 9 20.5V18H15V20.5C15 21.6 14.1 22.5 13 22.5Z" fill="#9FA8DA"/>
<path d="M15 20.5L9.2 21.3C9.35 21.65 9.65 22 10 22.2L14.7 21.55C14.9 21.25 15 20.9 15 20.5ZM9 19.35V20.35L15 19.5V18.5L9 19.35Z" fill="#5C6BC0"/>
</svg>
