<svg width="17" height="17" viewBox="0 0 17 17" fill="none" xmlns="http://www.w3.org/2000/svg">
<path d="M8.83319 0.208495L11.2589 5.1397L16.6813 5.93065C16.7501 5.94088 16.8147 5.97012 16.8678 6.01508C16.9209 6.06004 16.9604 6.11893 16.9818 6.18512C17.0033 6.25131 17.0058 6.32218 16.9891 6.38973C16.9725 6.45728 16.9373 6.51884 16.8875 6.56747L12.9646 10.405L13.8908 15.8248C13.9027 15.8934 13.8952 15.9638 13.8692 16.0283C13.8431 16.0928 13.7995 16.1487 13.7432 16.1896C13.687 16.2305 13.6205 16.2549 13.5511 16.2599C13.4817 16.265 13.4124 16.2505 13.3508 16.2181L8.50055 13.6597L3.65029 16.2188C3.58879 16.2513 3.51941 16.2659 3.45002 16.261C3.38064 16.256 3.31404 16.2317 3.25779 16.1908C3.20154 16.1498 3.1579 16.094 3.13183 16.0295C3.10576 15.965 3.0983 15.8945 3.1103 15.826L4.03652 10.405L0.112475 6.56747C0.0627202 6.51884 0.0275312 6.45728 0.010871 6.38973C-0.00578921 6.32218 -0.00325878 6.25131 0.0181773 6.18512C0.0396134 6.11893 0.0791038 6.06004 0.132201 6.01508C0.185298 5.97012 0.249894 5.94088 0.318712 5.93065L5.74112 5.1397L8.16791 0.208495C8.19818 0.146007 8.24543 0.0933064 8.30426 0.0564319C8.3631 0.0195574 8.43112 0 8.50055 0C8.56999 0 8.63801 0.0195574 8.69685 0.0564319C8.75568 0.0933064 8.80293 0.146007 8.83319 0.208495Z" fill="#FDB241"/>
</svg>
