<svg width="24" height="24" viewBox="0 0 24 24" fill="none" xmlns="http://www.w3.org/2000/svg">
<path d="M13.906 17.7293L15.0506 18.309C16.2796 18.7153 16.8766 16.075 14.9006 15.193L14.2756 14.774L15.32 15.193C16.496 15.7457 17.8673 13.114 15.4833 11.9613L14.5346 11.774L16.198 11.9613C17.2336 12.573 17.4186 9.93367 15.7953 9.16367L10.4996 8.10434C10.8746 4.47934 11.1663 2.14601 8.47862 1.66667C7.65796 1.54167 6.64529 1.66667 6.85362 2.50001C7.93696 7.37501 5.81196 10.0347 5.22162 10.6517C2.82196 13.051 2.82196 16.9417 5.22162 19.341C6.26362 20.3193 7.27496 20.25 9.81196 20.25C10.2913 20.25 16.3456 21.7433 16.3456 21.7433C18.6373 22.3477 19.895 19.886 18.3533 19.3653L17.8433 19.0153" fill="#FCEA2B"/>
<path d="M15.1753 12.1817C17.1276 12.6733 18.2686 9.65634 15.447 9.07167L10.4996 8.10434C10.8746 4.47934 11.1663 2.14601 8.47863 1.66667C7.65796 1.54167 6.64529 1.66667 6.85363 2.50001C7.93696 7.37501 5.81196 10.0347 5.22163 10.6517C2.82196 13.051 2.82196 16.9417 5.22163 19.341C6.26363 20.3193 7.27496 20.25 9.81196 20.25C10.2913 20.25 16.6896 21.827 16.6896 21.827C18.9813 22.4313 19.6796 19.9883 18.1383 19.4673L16.6896 18.945" stroke="#252525" stroke-width="0.444444" stroke-linecap="round" stroke-linejoin="round"/>
<path d="M14.9004 15.1933C16.8421 15.704 17.5881 12.7256 15.1751 12.1816" stroke="#252525" stroke-width="0.444444" stroke-linecap="round" stroke-linejoin="round"/>
<path d="M14.4707 18.2598C16.413 18.7831 16.8667 15.7278 14.901 15.1931" stroke="#252525" stroke-width="0.444444" stroke-linecap="round" stroke-linejoin="round"/>
<path d="M14.4699 18.2596L12.5723 17.732M14.9003 15.1933L13.2243 14.7156M15.1749 12.1816L13.7973 11.9006" stroke="#252525" stroke-width="0.444444" stroke-miterlimit="10" stroke-linecap="round" stroke-linejoin="round"/>
</svg>
